<svg width="500" height="500" viewBox="0 0 500 500" fill="none" xmlns="http://www.w3.org/2000/svg">
<rect width="500" height="500" fill="white"/>
<path fill-rule="evenodd" clip-rule="evenodd" d="M455.201 184.906C453.579 182.546 450.882 181.335 448.162 181.335H293.287L370.517 57.8898C372.506 54.7198 372.617 50.3808 370.203 46.9018C368.565 44.5389 365.84 43.3337 363.109 43.3337H229.742C216.351 43.3337 203.84 50.5144 196.339 62.5016L44.7708 304.784C42.7879 307.957 42.7045 312.296 45.0934 315.775C46.7119 318.132 49.4094 319.34 52.132 319.34H206.929L129.691 442.816C128.3 445.043 127.875 447.846 128.509 450.517C129.485 454.656 133.15 457.372 137.102 457.372H270.391C283.882 457.372 296.488 450.136 304.041 438.06L378.29 319.34H378.293L455.518 195.894C457.503 192.724 457.587 188.38 455.201 184.906Z" fill="#4E48E0"/>
<path fill-rule="evenodd" clip-rule="evenodd" d="M378.308 319.312L304.042 438.057C296.489 450.136 283.88 457.37 270.392 457.37H137.103C133.151 457.37 129.486 454.656 128.51 450.518C127.876 447.846 128.301 445.043 129.692 442.817L206.944 319.312H378.308Z" fill="#4E48E0"/>
<path fill-rule="evenodd" clip-rule="evenodd" d="M293.187 181.335H448.162C450.882 181.335 453.579 182.546 455.201 184.903C457.59 188.379 457.501 192.721 455.52 195.894L378.296 319.339H206.865L293.187 181.335Z" fill="#1C81C1"/>
<path fill-rule="evenodd" clip-rule="evenodd" d="M52.1313 319.34C49.4115 319.34 46.714 318.132 45.0954 315.775C42.7038 312.296 42.7872 307.957 44.7728 304.787L196.341 62.5016C203.839 50.5144 216.353 43.3337 229.741 43.3337H363.108C365.839 43.3337 368.567 44.5416 370.205 46.9018C372.616 50.3808 372.505 54.7198 370.519 57.8926L206.945 319.34H52.1313Z" fill="#5CC4CD"/>
</svg>
